<svg width="1278" height="1280" xmlns="http://www.w3.org/2000/svg" preserveAspectRatio="xMidYMid meet">
 <metadata>Created by potrace 1.15, written by Peter Selinger 2001-2017</metadata>

 <g>
  <title>background</title>
  <rect fill="none" id="canvas_background" height="402" width="582" y="-1" x="-1"/>
 </g>
 <g>
  <title>Layer 1</title>
  <g id="svg_1" fill="#000000" transform="translate(0,1280) scale(0.10000000149011612,-0.10000000149011612) ">
   <path fill="#ffffff" id="svg_2" d="m11020,12790c-659,-63 -1418,-308 -2290,-741c-1135,-562 -2360,-1405 -3428,-2358c-298,-267 -302,-270 -361,-292c-109,-42 -151,-34 -981,169c-235,58 -493,17 -691,-109c-47,-30 -482,-458 -1641,-1617c-1426,-1426 -1580,-1583 -1604,-1635c-49,-108 -18,-188 90,-237c53,-24 152,-43 736,-134c371,-58 891,-140 1155,-182c542,-85 586,-88 765,-40c157,41 275,102 390,200c64,55 113,71 168,57c31,-9 240,-214 1278,-1253c683,-684 1247,-1253 1253,-1265c27,-54 3,-152 -49,-198c-37,-33 -115,-159 -149,-240c-47,-111 -71,-216 -77,-330c-6,-92 2,-149 95,-740c55,-352 137,-869 181,-1150c44,-280 87,-530 95,-554c29,-87 93,-141 167,-141c96,0 34,-58 1714,1623c1063,1063 1585,1592 1613,1635c94,141 144,306 144,482c1,112 -2,125 -106,558c-59,244 -107,462 -107,485c1,62 32,121 108,201c406,427 981,1137 1374,1697c1169,1664 1873,3313 1915,4484c33,918 -357,1471 -1132,1606c-138,24 -467,34 -625,19zm-1122,-1884c462,-92 858,-436 1004,-876c54,-161 63,-222 63,-430c0,-208 -9,-270 -63,-430c-116,-349 -397,-650 -741,-795c-412,-174 -884,-128 -1260,122c-106,72 -279,242 -350,346c-275,404 -311,921 -93,1353c68,134 138,231 246,340c209,209 447,331 743,379c110,18 336,13 451,-9z"/>
   <path fill="#ffffff" id="svg_3" d="m3065,4781c-67,-41 -282,-283 -450,-506c-511,-680 -1064,-1789 -1279,-2570c-83,-303 -92,-531 -21,-559c36,-14 69,-3 216,70c430,213 812,378 1434,617c467,179 556,216 745,311c343,172 690,435 1029,780l104,106l-5,53c-3,39 -13,66 -37,103c-19,27 -374,389 -790,805c-629,629 -765,761 -810,783c-65,31 -95,33 -136,7z"/>
  </g>
 </g>
</svg>