<svg width="480.61" height="480.61" xmlns="http://www.w3.org/2000/svg">

 <g>
  <title>background</title>
  <rect fill="none" id="canvas_background" height="402" width="582" y="-1" x="-1"/>
 </g>
 <g>
  <title>Layer 1</title>
  <g stroke="null" transform="rotate(-45.21441650390625 238.69075012207045,248.8719635009766) " id="svg_1">
   <path stroke="null" id="svg_2" d="m401.780376,92.018419l-1.70786,-4.520301l-4.520301,-1.707146c-14.547112,-5.493674 -29.837268,-8.279018 -45.446177,-8.279018c-34.302661,0 -66.553039,13.358385 -90.809636,37.614982l-34.390372,34.390372l-76.862235,3.728054l-64.331039,64.330326l55.46657,17.668324l-20.510715,20.510002l11.981401,11.981401l-26.544201,40.686277l75.04242,75.043846l40.68699,-26.544201l11.981401,11.981401l20.510715,-20.510715l17.666897,55.46657l64.332465,-64.331039l3.727341,-76.861522l34.390372,-34.390372c35.62545,-35.626163 47.140488,-89.110333 29.335963,-136.257239zm-278.094437,115.838513l33.645189,-33.644476l45.065385,-2.185632l-46.189221,46.189221l-32.521353,-10.359113zm58.313954,148.205838l-50.491315,-50.491315l14.599168,-22.377595l58.269029,58.269742l-22.376882,14.599168zm131.358998,-25.821837l-33.644476,33.644476l-10.359113,-32.521353l46.189221,-46.189221l-2.185632,45.066098zm-81.542269,8.407375l-82.894295,-82.894295l125.500933,-125.500933c20.216208,-20.215494 47.093424,-31.348314 75.682778,-31.348314c11.378837,0 22.55159,1.773464 33.280798,5.277607c12.444199,38.136253 2.469444,80.426278 -26.069281,108.965715l-125.500933,125.50022z"/>
   <path stroke="null" id="svg_3" d="m327.575128,127.906287c-8.571387,0 -16.629346,3.337992 -22.68993,9.398576c-12.511943,12.51123 -12.511943,32.869343 0,45.381286c6.060584,6.060584 14.119256,9.398576 22.68993,9.398576s16.629346,-3.337992 22.68993,-9.398576c12.511943,-12.51123 12.511943,-32.869343 0,-45.381286c-6.059871,-6.060584 -14.118543,-9.398576 -22.68993,-9.398576zm7.563785,39.653004c-2.020195,2.020195 -4.706419,3.133334 -7.563072,3.133334s-5.542878,-1.113139 -7.563072,-3.132621c-4.170885,-4.170885 -4.170885,-10.956685 0,-15.127571c2.020195,-2.020195 4.706419,-3.132621 7.563072,-3.132621s5.542878,1.112426 7.563072,3.132621c4.170172,4.170172 4.170172,10.956685 0,15.126858z"/>
   <path stroke="null" id="svg_4" d="m67.340125,345.358519l24.244474,-24.245187l15.126858,15.126858l-24.244474,24.244474l-15.126858,-15.126144zm74.868425,74.873417l-15.126858,-15.126858l24.244474,-24.244474l15.126858,15.126858l-24.244474,24.244474zm-57.028246,-34.03739l35.741685,-35.741685l15.126858,15.126858l-35.741685,35.741685l-15.126858,-15.126858z"/>
  </g>
  <g id="svg_5"/>
  <g id="svg_6"/>
  <g id="svg_7"/>
  <g id="svg_8"/>
  <g id="svg_9"/>
  <g id="svg_10"/>
  <g id="svg_11"/>
  <g id="svg_12"/>
  <g id="svg_13"/>
  <g id="svg_14"/>
  <g id="svg_15"/>
  <g id="svg_16"/>
  <g id="svg_17"/>
  <g id="svg_18"/>
  <g id="svg_19"/>
 </g>
</svg>